<?xml version="1.0" standalone="no"?>
<!DOCTYPE svg PUBLIC "-//W3C//DTD SVG 20010904//EN"
 "http://www.w3.org/TR/2001/REC-SVG-20010904/DTD/svg10.dtd">
<svg version="1.0" xmlns="http://www.w3.org/2000/svg"
 width="350.000000pt" height="350.000000pt" viewBox="0 0 350.000000 350.000000"
 preserveAspectRatio="xMidYMid meet">

<g transform="translate(0.000000,350.000000) scale(0.100000,-0.100000)"
fill="#000000" stroke="none">
<path d="M1455 3401 c-91 -56 -225 -251 -285 -418 -12 -35 -27 -63 -32 -63 -5
0 -28 13 -51 28 -64 43 -177 104 -177 95 0 -4 28 -23 63 -42 126 -69 169 -101
162 -119 -4 -9 -18 -60 -32 -112 l-25 -95 -176 -2 c-110 -1 -215 -8 -277 -18
-67 -12 -186 -19 -362 -22 l-263 -5 0 -25 c0 -22 3 -24 24 -19 14 3 28 2 31
-4 4 -6 -6 -10 -24 -10 -24 0 -31 -4 -31 -20 0 -18 7 -20 83 -20 48 0 88 5 94
11 8 8 84 13 217 17 113 3 206 9 206 13 0 5 9 9 21 9 11 0 17 -4 14 -10 -4 -7
55 -10 169 -10 136 0 174 -3 171 -12 -4 -10 -85 -12 -371 -10 -240 3 -364 0
-360 -6 4 -6 135 -10 353 -10 303 -1 349 -3 359 -16 6 -9 24 -16 40 -16 22 0
26 -3 14 -10 -21 -14 -68 -12 -72 3 -5 13 -21 14 -427 24 -171 4 -212 3 -206
-7 6 -10 2 -12 -16 -7 -13 4 -60 10 -103 13 -59 5 -77 4 -72 -4 4 -7 28 -13
54 -13 45 -2 45 -2 12 -8 -23 -4 -36 -12 -38 -23 -3 -16 6 -18 71 -18 57 0 76
4 81 15 3 8 13 15 21 15 9 0 13 -4 10 -10 -3 -6 4 -10 17 -10 22 -1 22 -1 4
-15 -15 -11 -42 -13 -132 -8 -83 4 -114 3 -114 -5 0 -8 24 -12 73 -12 86 0
149 -9 141 -21 -3 -5 -46 -6 -95 -2 -72 5 -93 3 -100 -8 -16 -25 -10 -29 54
-30 49 -1 56 -3 32 -9 -16 -4 -47 -8 -67 -9 -21 0 -38 -6 -38 -12 0 -8 22 -9
77 -3 43 4 166 8 273 7 164 0 196 2 206 15 9 13 27 14 105 9 52 -4 104 -9 115
-13 21 -6 21 -6 -6 -62 -34 -71 -73 -180 -90 -250 -7 -29 -14 -51 -17 -49 -3
4 12 164 21 221 0 5 -4 10 -10 13 -27 10 -51 -348 -30 -463 l7 -41 -117 5
c-139 6 -353 -13 -444 -38 -36 -11 -91 -26 -123 -34 -63 -16 -91 -32 -42 -24
17 3 93 20 170 38 147 34 304 48 466 42 l86 -3 14 -72 c7 -40 14 -79 14 -87 0
-8 3 -17 6 -20 13 -11 48 -93 43 -101 -3 -5 -1 -9 4 -9 6 0 24 -23 42 -50 40
-63 108 -124 219 -198 100 -67 176 -106 193 -99 7 2 -9 14 -35 26 -114 50
-294 184 -348 258 -41 58 -89 151 -89 174 0 10 -4 20 -9 23 -9 6 -20 62 -27
141 -13 129 5 263 58 435 46 146 148 320 217 369 25 18 29 29 34 89 8 84 63
306 77 310 6 2 7 8 4 14 -8 13 59 173 112 268 47 83 163 216 201 231 15 6 31
5 43 -1 42 -22 205 -265 365 -543 68 -118 68 -118 47 -133 -12 -8 -22 -22 -22
-29 0 -8 -9 -29 -20 -47 -11 -18 -20 -40 -20 -48 0 -8 15 11 32 43 17 31 35
57 40 57 10 0 6 -9 -22 -50 -10 -14 -23 -48 -29 -75 -15 -62 -36 -97 -27 -45
4 25 3 31 -4 20 -15 -23 -12 -56 7 -71 13 -11 17 -11 21 -1 2 7 9 18 16 25 15
16 46 65 46 72 0 4 -4 3 -10 0 -5 -3 -10 -2 -10 4 0 5 6 14 13 18 7 4 25 29
40 55 15 26 32 50 39 54 6 4 -1 -14 -15 -41 -15 -26 -25 -50 -23 -53 3 -2 17
19 33 47 15 28 32 51 36 51 5 0 1 -10 -7 -22 -27 -39 -17 -45 14 -8 16 19 30
30 30 23 0 -6 -4 -15 -10 -18 -5 -3 -10 -11 -10 -16 0 -6 4 -8 8 -5 16 9 4
-48 -27 -139 -19 -53 -27 -91 -21 -93 5 -2 10 -11 11 -20 0 -14 2 -13 9 3 l9
20 1 -20 c1 -13 8 -5 21 24 25 55 11 75 -20 29 -20 -29 -22 -30 -17 -8 4 14 9
37 12 52 4 17 11 25 20 21 8 -3 14 0 14 6 0 6 11 34 25 62 13 29 23 55 21 58
-6 9 31 57 39 50 3 -3 -13 -43 -35 -87 -42 -86 -47 -104 -28 -99 16 3 78 72
78 87 0 22 43 90 57 90 19 0 16 -13 -7 -28 -23 -14 -27 -32 -7 -32 8 0 20 11
27 25 7 14 17 25 22 25 5 0 3 -10 -3 -22 -12 -22 -11 -22 8 -5 26 23 36 22 23
-2 -5 -11 -10 -23 -10 -28 1 -4 8 4 16 20 8 15 19 27 24 27 14 0 14 0 -29 -86
-28 -56 -36 -81 -28 -86 9 -5 7 -11 -5 -20 -9 -7 -19 -26 -23 -43 l-5 -30 13
28 c8 16 18 32 24 35 5 4 31 48 58 99 26 51 52 90 56 87 5 -3 -8 -33 -29 -67
-58 -97 -71 -130 -60 -151 9 -16 13 -13 36 25 14 24 26 52 27 64 1 11 7 20 14
20 7 0 24 13 37 30 23 29 24 29 38 10 35 -46 77 -136 100 -215 28 -94 35 -92
10 3 -14 53 -74 184 -106 228 -9 13 -3 29 33 83 24 36 46 63 50 58 13 -13 58
-175 53 -184 -4 -6 -12 -32 -19 -59 -11 -42 -11 -49 1 -49 8 0 14 9 14 19 0
27 11 52 20 46 5 -3 6 4 3 14 -12 47 201 405 306 513 34 34 58 64 55 67 -11
11 -138 -133 -195 -219 -56 -83 -149 -247 -162 -284 -10 -26 -13 -21 -41 75
l-25 84 27 39 c15 22 79 92 142 157 116 118 202 179 251 179 67 0 139 -130
194 -349 32 -125 95 -491 105 -606 6 -60 20 -124 43 -190 19 -55 41 -136 47
-180 16 -97 15 -327 0 -450 -13 -107 -59 -295 -71 -295 -5 0 -9 -9 -9 -21 0
-41 -175 -353 -211 -375 -5 -2 -6 -18 -2 -34 7 -37 -2 -38 -22 -2 -9 15 -13
18 -9 7 18 -50 14 -84 -21 -185 -49 -139 -104 -244 -192 -362 -40 -54 -67 -98
-60 -98 7 0 28 20 47 45 19 25 37 45 42 45 4 0 8 4 8 10 0 5 15 31 34 57 49
69 113 202 146 302 l28 86 40 -130 c23 -72 49 -167 58 -213 10 -45 21 -82 26
-82 4 0 8 5 8 10 0 29 -44 200 -81 315 l-41 130 17 55 c9 30 28 74 42 98 l25
43 40 -53 c71 -95 171 -270 230 -403 32 -71 58 -121 58 -109 0 71 -164 374
-305 560 -6 9 10 51 55 139 36 69 67 125 71 125 3 0 45 -27 92 -61 48 -33 87
-56 87 -51 0 5 -41 37 -91 71 -68 48 -89 67 -84 80 48 124 78 326 79 526 0
196 -16 297 -70 441 -19 51 -34 110 -34 132 0 45 -59 402 -91 548 -31 144 -64
247 -105 324 -44 84 -83 120 -129 120 -74 0 -265 -168 -430 -378 -102 -131
-103 -131 -189 -56 -28 24 -55 44 -61 44 -5 -1 7 -14 28 -31 20 -17 37 -34 37
-38 0 -4 -28 -2 -62 6 -35 7 -121 16 -191 20 -116 6 -130 8 -141 27 -7 12 -53
89 -101 171 -179 304 -318 495 -362 495 -10 0 -31 -8 -48 -19z m543 -708 c-13
-28 -51 -83 -55 -79 -7 7 39 86 50 86 5 0 7 -3 5 -7z m201 -33 c-13 -16 -25
-28 -27 -25 -7 7 27 55 39 55 5 0 0 -13 -12 -30z m137 -80 c-23 -44 -42 -75
-44 -70 -4 11 70 150 79 150 3 0 -12 -36 -35 -80z m-1386 50 c85 -17 115 -26
104 -32 -12 -8 -29 -5 -67 11 -16 6 -72 15 -125 20 -95 8 -95 8 -27 9 39 0 90
-3 115 -8z m-161 -26 c2 -2 -40 -3 -95 -2 -99 2 -99 2 -29 8 64 5 113 3 124
-6z m109 -1 c-16 -2 -28 -10 -28 -17 0 -10 -18 -12 -72 -8 -96 6 -100 12 -9
12 46 0 70 4 66 10 -4 6 9 9 32 9 30 -2 32 -3 11 -6z m-620 -10 c-21 -2 -57
-2 -80 0 -24 2 -7 4 37 4 44 0 63 -2 43 -4z m255 0 c-13 -2 -35 -2 -50 0 -16
2 -5 4 22 4 28 0 40 -2 28 -4z m-90 -10 c-7 -2 -21 -2 -30 0 -10 3 -4 5 12 5
17 0 24 -2 18 -5z m1698 -16 c-10 -9 -11 -8 -5 6 3 10 9 15 12 12 3 -3 0 -11
-7 -18z m-1991 -7 c0 -5 -16 -10 -36 -10 -21 0 -33 4 -29 10 3 6 19 10 36 10
16 0 29 -4 29 -10z m885 0 c3 -5 1 -10 -4 -10 -6 0 -11 5 -11 10 0 6 2 10 4
10 3 0 8 -4 11 -10z m10 -40 c4 -6 -6 -10 -24 -10 -16 0 -33 5 -36 10 -4 6 6
10 24 10 16 0 33 -4 36 -10z m-140 -52 c-22 -13 -91 -11 -115 3 -10 5 12 8 60
8 62 0 71 -2 55 -11z m-292 -9 c-7 -7 -49 -7 -134 -1 l-124 9 135 2 c94 1 131
-2 123 -10z m162 -19 c7 -12 -31 -12 -95 -1 -44 8 -44 9 22 10 37 0 70 -3 73
-9z m103 -7 c-16 -2 -40 -2 -55 0 -16 2 -3 4 27 4 30 0 43 -2 28 -4z m82 -7
c0 -3 -4 -8 -10 -11 -5 -3 -10 -1 -10 4 0 6 5 11 10 11 6 0 10 -2 10 -4z
m-308 -22 c53 -12 19 -20 -59 -13 -43 4 -117 8 -165 8 -59 1 -88 5 -88 12 0 9
38 10 143 6 78 -4 154 -10 169 -13z m241 -4 c5 -4 -15 -7 -45 -5 -77 3 -88 4
-88 13 0 9 122 3 133 -8z m-303 -30 c42 -5 24 -7 -80 -7 -74 -1 -148 3 -165 7
-40 10 172 11 245 0z m253 3 c37 -3 67 -10 67 -15 0 -9 -86 -4 -180 12 l-45 8
45 1 c25 0 75 -2 113 -6z"/>
<path d="M1490 3326 c0 -4 16 -55 35 -113 36 -107 98 -393 112 -516 5 -37 12
-66 18 -65 11 3 10 15 -16 173 -29 171 -74 361 -105 441 -25 64 -44 99 -44 80z"/>
<path d="M1180 2876 c0 -2 8 -10 18 -17 15 -13 16 -12 3 4 -13 16 -21 21 -21
13z"/>
<path d="M1415 2770 c-3 -5 1 -10 9 -10 8 0 27 -18 43 -40 56 -82 52 -77 53
-58 0 18 -75 118 -90 118 -5 0 -12 -4 -15 -10z"/>
<path d="M1360 2732 c0 -8 -5 -10 -12 -6 -7 5 2 -10 20 -31 18 -22 55 -73 83
-113 28 -41 53 -71 56 -69 2 3 -16 33 -41 68 -33 46 -42 65 -33 71 8 5 0 20
-30 50 -24 24 -43 37 -43 30z"/>
<path d="M1484 2630 c12 -36 54 -131 61 -138 14 -13 -7 42 -37 98 -16 30 -27
48 -24 40z"/>
<path d="M2805 2530 c-61 -20 -136 -72 -122 -86 4 -4 20 4 35 18 41 39 88 59
171 73 72 12 73 13 26 13 -27 1 -77 -8 -110 -18z"/>
<path d="M1273 2466 c-102 -33 -182 -107 -231 -214 -21 -46 -26 -73 -26 -138
-1 -73 2 -87 37 -156 41 -84 88 -132 172 -176 45 -24 60 -27 155 -27 96 0 110
2 159 28 67 36 148 117 173 175 43 96 40 229 -6 321 -34 67 -101 132 -170 166
-70 34 -193 44 -263 21z m259 -40 c60 -29 126 -94 159 -157 26 -52 40 -149 29
-213 -38 -236 -302 -367 -506 -250 -63 36 -139 125 -160 186 -22 66 -22 178 0
237 35 96 120 180 216 215 69 25 189 17 262 -18z"/>
<path d="M1262 2354 c-56 -28 -91 -63 -125 -128 -30 -57 -30 -173 0 -231 45
-86 153 -155 243 -155 55 0 132 31 175 71 64 59 89 118 89 204 -1 154 -111
265 -264 265 -51 0 -78 -6 -118 -26z m27 -73 c-43 -78 -50 -71 -9 9 17 34 34
60 37 57 3 -3 -10 -33 -28 -66z m125 -25 c-26 -47 -49 -84 -51 -82 -5 5 63
144 79 163 27 33 15 -2 -28 -81z m-49 45 c-21 -43 -29 -39 -8 4 9 19 18 33 21
31 2 -2 -4 -18 -13 -35z m43 12 c-20 -46 -42 -77 -46 -65 -4 14 38 92 50 92 4
0 2 -12 -4 -27z m-179 -56 c-17 -31 -32 -57 -34 -57 -6 0 37 103 49 119 23 30
14 -9 -15 -62z m221 -38 c-22 -41 -40 -70 -40 -66 0 15 43 112 58 130 28 32
22 11 -18 -64z m-154 4 c-8 -15 -15 -25 -16 -21 0 12 23 58 27 54 3 -2 -2 -17
-11 -33z m294 19 c0 -5 -7 -17 -16 -28 -14 -17 -15 -17 -10 -1 3 10 6 23 6 28
0 5 5 9 10 9 6 0 10 -4 10 -8z m-91 -57 c-30 -50 -47 -56 -19 -7 13 23 27 42
32 42 4 0 -2 -16 -13 -35z m92 -32 c-11 -21 -26 -47 -35 -58 -14 -18 -14 -16
-1 25 19 54 47 99 52 83 2 -6 -5 -29 -16 -50z m-290 5 c-56 -128 -104 -222
-108 -211 -7 19 106 253 122 253 2 0 -4 -19 -14 -42z m199 -28 c-36 -71 -49
-81 -17 -12 25 54 36 72 43 72 2 0 -9 -27 -26 -60z m-50 20 c-6 -12 -14 -19
-17 -17 -2 3 1 15 7 27 6 12 14 19 17 17 2 -3 -1 -15 -7 -27z m134 -80 c-27
-49 -50 -88 -52 -86 -4 5 45 124 64 154 8 12 19 22 25 22 5 0 -11 -40 -37 -90z
m-296 -15 c-23 -46 -44 -83 -45 -81 -5 4 55 137 69 153 22 27 17 10 -24 -72z
m334 23 c-7 -7 -12 -8 -12 -2 0 6 3 14 7 17 3 4 9 5 12 2 2 -3 -1 -11 -7 -17z
m-471 -15 c-12 -20 -14 -14 -5 12 4 9 9 14 11 11 3 -2 0 -13 -6 -23z m319 -47
c-22 -53 -25 -70 -10 -61 6 4 0 -14 -12 -39 -47 -98 -46 -24 2 82 36 79 53 94
20 18z m-40 20 c-14 -37 -80 -166 -85 -166 -5 0 21 62 56 133 30 58 46 77 29
33z m-260 -22 c0 -8 -5 -12 -10 -9 -6 4 -8 11 -5 16 9 14 15 11 15 -7z m188
-70 c-40 -84 -37 -79 -44 -71 -3 3 11 37 32 76 21 38 40 68 42 67 2 -2 -12
-35 -30 -72z m32 -59 c-6 -15 -13 -25 -17 -21 -3 3 0 17 7 31 7 14 15 23 17
21 2 -2 -1 -16 -7 -31z"/>
<path d="M1437 1943 c-4 -3 -7 -11 -7 -17 0 -6 5 -5 12 2 6 6 9 14 7 17 -3 3
-9 2 -12 -2z"/>
<path d="M2632 2460 c0 -14 3 -45 7 -70 l8 -45 1 40 c0 22 -4 54 -8 70 -7 27
-8 28 -8 5z"/>
<path d="M2801 2439 c-46 -9 -57 -14 -44 -21 4 -3 44 3 88 13 62 13 71 17 40
17 -22 0 -60 -4 -84 -9z"/>
<path d="M1850 2405 c-7 -20 -10 -39 -7 -42 3 -3 10 12 16 33 14 49 7 56 -9 9z"/>
<path d="M1880 2415 c-6 -15 -8 -30 -6 -33 3 -3 10 8 16 23 6 15 8 30 6 33 -3
3 -10 -8 -16 -23z"/>
<path d="M2271 2398 c-8 -27 -12 -113 -5 -105 1 1 11 26 22 55 15 39 17 50 6
41 -17 -14 -18 -5 -4 22 7 11 7 19 1 19 -5 0 -14 -15 -20 -32z"/>
<path d="M2027 2356 c-4 -10 -7 -25 -6 -34 0 -11 4 -9 10 7 5 13 8 29 6 35 -2
5 -6 2 -10 -8z"/>
<path d="M2652 2300 c0 -19 2 -27 5 -17 2 9 2 25 0 35 -3 9 -5 1 -5 -18z"/>
<path d="M65 2289 c-4 -5 98 -9 264 -9 174 0 272 4 276 10 4 7 -81 10 -264 10
-157 -1 -273 -5 -276 -11z"/>
<path d="M355 2259 c-49 -4 -129 -7 -177 -8 -54 -1 -90 -5 -94 -13 -5 -8 25
-9 117 -5 68 4 181 10 252 13 70 4 127 11 127 15 0 10 -92 9 -225 -2z"/>
<path d="M370 2219 c-52 -4 -137 -11 -188 -14 -50 -4 -92 -11 -92 -16 0 -5 17
-7 37 -5 21 2 120 10 220 16 100 7 180 17 177 21 -6 10 -7 10 -154 -2z"/>
<path d="M2495 2200 c-110 -16 -215 -94 -272 -201 -26 -50 -28 -63 -28 -164 0
-106 1 -112 34 -173 150 -276 536 -263 667 23 37 79 39 201 6 285 -27 70 -104
157 -168 192 -43 23 -147 50 -178 47 -6 -1 -33 -5 -61 -9z m208 -43 c229 -106
275 -421 86 -591 -119 -107 -312 -117 -441 -21 -93 69 -140 165 -141 291 0 66
5 91 25 136 30 64 86 130 141 165 91 57 231 66 330 20z"/>
<path d="M2445 2076 c-163 -76 -207 -283 -88 -416 60 -67 126 -94 214 -88 147
11 242 117 243 268 0 111 -69 210 -173 245 -65 22 -137 19 -196 -9z m5 -90
c-42 -77 -57 -96 -40 -51 25 65 69 140 77 131 3 -2 -14 -38 -37 -80z m84 34
c-15 -28 -29 -48 -31 -46 -5 4 23 63 39 84 22 26 18 10 -8 -38z m30 -17 c-18
-36 -30 -52 -32 -41 -3 17 47 113 55 104 2 -2 -8 -30 -23 -63z m16 -37 c-50
-94 -69 -120 -50 -72 25 68 89 180 97 172 3 -3 -18 -48 -47 -100z m-189 3
c-23 -41 -41 -71 -41 -67 0 12 49 120 62 135 26 31 16 1 -21 -68z m229 -39
c-27 -52 -50 -92 -50 -89 0 14 54 137 72 162 37 51 28 22 -22 -73z m-152 15
c-12 -24 -23 -43 -26 -41 -4 5 36 86 43 86 3 0 -5 -20 -17 -45z m282 -15 c-7
-17 -15 -28 -18 -26 -2 3 1 19 8 36 7 17 15 28 18 26 2 -3 -1 -19 -8 -36z
m-65 -11 c-5 -15 -4 -19 4 -15 16 10 14 1 -10 -45 -11 -23 -18 -47 -15 -55 3
-8 -5 -43 -19 -76 -28 -70 -29 -71 -15 -63 13 8 13 4 -6 -41 -9 -22 -19 -34
-21 -27 -2 7 1 21 7 32 16 31 3 25 -15 -6 -26 -46 -9 7 31 93 39 86 42 99 13
64 -17 -22 -17 -18 4 25 13 28 28 61 32 75 6 24 6 24 -20 -5 -23 -27 -25 -27
-14 -5 16 33 40 70 46 70 2 0 1 -10 -2 -21z m-221 -56 c-15 -32 -40 -88 -57
-125 -26 -60 -47 -86 -47 -59 0 24 112 241 125 241 3 0 -7 -26 -21 -57z m326
50 c0 -15 -61 -115 -67 -110 -8 9 44 117 56 117 6 0 11 -3 11 -7z m-180 -67
c-42 -74 -48 -71 -9 5 16 34 33 59 36 56 3 -3 -9 -31 -27 -61z m-161 -90 c-29
-58 -54 -104 -57 -102 -2 3 19 53 48 111 29 58 54 104 57 101 3 -2 -19 -52
-48 -110z m351 109 c0 -12 -102 -206 -106 -202 -4 4 26 78 68 165 11 23 24 42
29 42 5 0 9 -2 9 -5z m-232 -190 c-23 -48 -43 -84 -45 -78 -4 12 76 177 83
171 2 -3 -15 -45 -38 -93z m-30 -2 c-40 -82 -37 -78 -44 -71 -8 8 60 138 72
138 2 0 -11 -30 -28 -67z m35 -53 c-5 -19 -23 -39 -23 -25 0 9 20 45 24 45 2
0 2 -9 -1 -20z"/>
<path d="M295 2170 c-27 -5 -87 -9 -132 -9 -45 -1 -85 -5 -88 -11 -3 -5 -15
-10 -26 -10 -11 0 -17 -4 -14 -10 3 -6 52 -10 111 -10 83 0 104 3 104 14 0 10
19 16 68 21 37 3 92 10 122 14 l55 9 -75 -1 c-41 0 -97 -3 -125 -7z"/>
<path d="M360 2129 c-76 -14 -91 -19 -86 -28 3 -4 33 -2 68 5 35 7 85 14 111
15 26 2 50 6 53 11 7 10 -87 9 -146 -3z"/>
<path d="M120 2101 c-30 -3 -50 -9 -44 -13 16 -10 175 3 168 13 -6 10 -35 9
-124 0z"/>
<path d="M311 2078 c-102 -13 -129 -31 -36 -24 l70 5 -63 -18 c-34 -10 -66
-21 -69 -25 -15 -15 7 -13 72 5 39 11 91 20 118 20 58 0 63 18 5 21 l-43 1 38
4 c20 2 37 8 37 14 0 11 -26 10 -129 -3z"/>
<path d="M350 2004 c-88 -17 -105 -22 -97 -30 8 -8 197 29 197 38 0 10 -8 9
-100 -8z"/>
<path d="M285 1945 c-53 -17 -16 -18 60 -1 56 13 57 14 20 14 -22 0 -58 -5
-80 -13z"/>
<path d="M285 1888 c-74 -19 -119 -39 -84 -38 30 1 182 47 173 52 -5 3 -45 -3
-89 -14z"/>
<path d="M248 1826 c-73 -20 -107 -36 -77 -36 26 0 159 43 159 51 0 5 -1 8 -2
8 -2 -1 -38 -11 -80 -23z"/>
<path d="M1030 1833 c-45 -18 -92 -58 -111 -95 -29 -56 -43 -165 -29 -219 10
-37 9 -44 -12 -68 l-23 -26 23 20 c23 19 24 19 34 0 25 -43 92 -104 147 -134
182 -97 441 -95 636 4 l70 36 35 -43 c142 -174 288 -273 483 -327 39 -11 95
-23 122 -27 95 -12 226 27 313 94 43 33 44 33 65 15 l22 -18 -19 22 c-18 22
-18 23 7 56 35 46 53 148 38 217 -14 66 -37 120 -51 120 -7 0 -10 -3 -8 -7 50
-98 60 -198 27 -270 -37 -82 -77 -121 -168 -166 -82 -41 -87 -42 -185 -42 -84
0 -115 5 -185 28 -183 61 -311 148 -422 285 l-59 73 1 67 c0 37 8 99 19 137
18 69 18 94 0 65 -9 -15 -38 -171 -42 -230 -3 -32 -8 -38 -73 -72 -93 -49
-186 -70 -310 -70 -173 0 -312 47 -396 133 -65 67 -91 173 -65 271 24 92 48
122 126 157 40 17 31 29 -10 14z"/>
<path d="M222 1765 c-55 -14 -78 -25 -49 -25 26 0 121 23 132 32 13 11 -19 8
-83 -7z"/>
<path d="M243 1737 c-52 -15 -71 -33 -23 -22 19 4 52 11 73 15 21 4 41 10 44
14 10 10 -48 5 -94 -7z"/>
<path d="M533 1389 c-35 -22 -46 -37 -15 -20 22 13 58 40 52 41 -3 0 -20 -10
-37 -21z"/>
<path d="M469 1343 c-13 -16 -12 -17 4 -4 9 7 17 15 17 17 0 8 -8 3 -21 -13z"/>
<path d="M429 1313 c-13 -16 -12 -17 4 -4 9 7 17 15 17 17 0 8 -8 3 -21 -13z"/>
<path d="M334 1238 l-19 -23 23 19 c21 18 27 26 19 26 -2 0 -12 -10 -23 -22z"/>
<path d="M244 1158 l-19 -23 23 19 c12 11 22 21 22 23 0 8 -8 2 -26 -19z"/>
<path d="M2830 1136 c0 -2 8 -10 18 -17 15 -13 16 -12 3 4 -13 16 -21 21 -21
13z"/>
<path d="M189 1093 l-24 -28 28 24 c25 23 32 31 24 31 -2 0 -14 -12 -28 -27z"/>
<path d="M1329 1053 c12 -23 105 -112 100 -97 -6 18 -91 114 -101 114 -5 0 -5
-7 1 -17z"/>
<path d="M1437 1013 c15 -21 28 -40 30 -42 2 -2 6 -2 9 2 10 10 -36 77 -52 77
-11 0 -7 -10 13 -37z"/>
<path d="M2930 1046 c0 -2 8 -10 18 -17 15 -13 16 -12 3 4 -13 16 -21 21 -21
13z"/>
<path d="M1510 1024 c0 -7 9 -22 20 -35 10 -13 19 -19 20 -13 0 7 -9 22 -20
35 -10 13 -19 19 -20 13z"/>
<path d="M2825 1010 c10 -11 20 -20 23 -20 3 0 -3 9 -13 20 -10 11 -20 20 -23
20 -3 0 3 -9 13 -20z"/>
<path d="M70 920 c-6 -11 -8 -20 -6 -20 3 0 10 9 16 20 6 11 8 20 6 20 -3 0
-10 -9 -16 -20z"/>
<path d="M526 905 c-9 -26 -7 -32 5 -12 6 10 9 21 6 23 -2 3 -7 -2 -11 -11z"/>
<path d="M3070 897 c0 -2 15 -16 33 -33 l32 -29 -29 33 c-28 30 -36 37 -36 29z"/>
<path d="M16 815 c-9 -26 -7 -32 5 -12 6 10 9 21 6 23 -2 3 -7 -2 -11 -11z"/>
<path d="M2997 745 c9 -19 18 -33 21 -31 4 5 -26 66 -33 66 -3 0 3 -16 12 -35z"/>
<path d="M1220 352 c0 -5 15 -13 33 -16 67 -13 238 -147 352 -278 48 -55 65
-68 65 -50 0 5 -34 45 -75 90 -81 86 -197 185 -268 227 -49 28 -107 43 -107
27z"/>
<path d="M3063 93 c81 -2 213 -2 295 0 81 1 14 3 -148 3 -162 0 -229 -2 -147
-3z"/>
<path d="M1598 3 c6 -2 18 -2 25 0 6 3 1 5 -13 5 -14 0 -19 -2 -12 -5z"/>
</g>
</svg>
